<?xml version="1.0" standalone="no"?>
<svg version="1.0" xmlns="http://www.w3.org/2000/svg"
 width="400.000000pt" height="400.000000pt" viewBox="0 0 400.000000 400.000000"
 preserveAspectRatio="xMidYMid meet">

<g transform="translate(0.000000,400.000000) scale(0.100000,-0.100000)"
fill="#000000" stroke="none">
<path d="M12 3988 c-9 -9 -12 -406 -12 -1723 0 -1646 1 -1713 18 -1728 17 -16
95 -17 918 -17 494 0 904 4 911 8 19 12 31 55 22 80 -5 12 -20 27 -34 32 -17
6 -340 10 -869 10 l-843 0 3 38 c2 20 3 747 3 1615 l1 1577 1225 0 1225 0 0
-842 c0 -657 3 -849 13 -868 16 -32 84 -41 104 -14 18 25 19 1814 1 1832 -17
17 -2669 17 -2686 0z"/>
<path d="M400 3661 c-7 -13 -10 -469 -10 -1404 0 -1328 1 -1385 18 -1400 17
-16 81 -17 719 -17 661 0 702 1 723 18 30 24 30 70 0 94 -21 17 -60 18 -676
18 l-654 0 0 1295 0 1295 870 0 870 0 0 -693 c0 -660 1 -695 18 -710 23 -21
76 -22 96 -1 14 14 16 96 16 754 0 658 -2 740 -16 754 -14 14 -117 16 -989 16
-953 0 -975 0 -985 -19z"/>
<path d="M1155 3183 c-258 -306 -315 -378 -315 -397 0 -38 28 -66 65 -66 30 0
41 9 101 83 38 45 71 84 74 87 3 3 35 41 70 85 35 44 67 82 70 85 89 83 92
170 6 170 -26 0 -39 -9 -71 -47z"/>
<path d="M1621 3198 c-79 -89 -111 -134 -111 -160 0 -45 38 -70 92 -59 3 0 36
37 72 80 54 65 66 85 66 115 0 64 -70 78 -119 24z"/>
<path d="M1146 2629 c-185 -221 -198 -246 -158 -282 22 -20 62 -22 85 -4 9 6
90 102 181 212 172 208 186 234 148 268 -10 10 -33 17 -50 17 -28 0 -47 -19
-206 -211z"/>
<path d="M216 2485 c-3 -9 -6 -110 -6 -224 0 -224 5 -246 50 -239 43 6 50 38
49 238 -1 225 -3 234 -51 238 -26 2 -37 -1 -42 -13z"/>
<path d="M2239 1924 c-51 -15 -117 -72 -146 -126 -17 -31 -18 -83 -21 -806 -1
-493 1 -787 8 -810 15 -57 63 -115 122 -148 l53 -29 766 -3 c754 -2 768 -2
822 18 60 23 119 78 143 136 21 50 21 1578 0 1628 -24 57 -83 113 -142 136
-53 20 -73 20 -807 19 -621 0 -760 -3 -798 -15z m731 -504 l0 -390 -385 0
-385 0 0 348 c0 383 -2 373 64 413 29 18 54 19 369 19 l337 0 0 -390z m829
379 c20 -7 40 -26 56 -54 l25 -42 -2 -334 -3 -334 -385 0 -385 0 -3 388 -2
387 333 0 c218 0 345 -4 366 -11z m-829 -1279 l0 -390 -339 0 c-335 0 -338 0
-372 23 -59 39 -59 40 -59 415 l0 342 385 0 385 0 0 -390z m908 50 c3 -378 2
-384 -70 -421 -34 -18 -62 -19 -373 -19 l-335 0 0 383 c0 211 3 387 7 390 4 4
178 6 387 5 l381 -3 3 -335z"/>
<path d="M2540 1630 c-16 -16 -20 -33 -20 -80 l0 -60 -51 0 c-75 0 -109 -22
-109 -71 0 -42 28 -59 98 -59 l62 0 0 -58 c0 -73 18 -102 65 -102 47 0 65 29
65 102 l0 58 63 0 c71 0 97 17 97 63 0 40 -42 67 -106 67 l-54 0 0 60 c0 68
-21 100 -65 100 -14 0 -34 -9 -45 -20z"/>
<path d="M3323 1475 c-29 -20 -31 -75 -5 -98 16 -14 43 -17 175 -17 l156 0 20
27 c23 28 21 56 -5 83 -22 23 -310 27 -341 5z"/>
<path d="M2410 690 c-33 -33 -25 -66 30 -124 l49 -52 -45 -45 c-53 -52 -62
-80 -40 -114 27 -42 71 -34 128 22 l47 46 50 -46 c56 -53 104 -63 134 -29 29
31 20 60 -35 118 l-52 55 52 52 c57 57 64 85 32 117 -33 33 -66 25 -123 -29
l-52 -49 -52 49 c-57 54 -90 62 -123 29z"/>
<path d="M3316 694 c-9 -8 -16 -31 -16 -49 0 -57 22 -65 191 -65 127 0 150 2
169 18 27 22 29 65 5 92 -17 18 -32 20 -176 20 -130 0 -160 -3 -173 -16z"/>
<path d="M3317 432 c-24 -26 -22 -79 2 -92 29 -15 336 -13 348 3 21 26 21 57
1 82 -19 25 -21 25 -177 25 -140 0 -160 -2 -174 -18z"/>
</g>
</svg>
