<?xml version="1.0" standalone="no"?>
<svg version="1.0" xmlns="http://www.w3.org/2000/svg"
 width="400.000000pt" height="400.000000pt" viewBox="0 0 400.000000 400.000000"
 preserveAspectRatio="xMidYMid meet">

<g transform="translate(0.000000,400.000000) scale(0.100000,-0.100000)"
fill="#000000" stroke="none">
<path d="M1795 3994 c-401 -42 -749 -176 -1054 -406 -106 -80 -202 -170 -222
-210 -20 -40 -26 -127 -9 -157 7 -14 1 -34 -26 -84 -19 -36 -44 -92 -55 -124
-65 -190 -116 -530 -126 -843 l-6 -205 -35 -35 c-19 -19 -47 -60 -61 -90 l-26
-55 0 -305 0 -305 26 -55 c34 -72 91 -128 173 -169 36 -18 66 -39 66 -45 0
-29 63 -98 106 -118 39 -17 63 -19 164 -16 115 3 119 4 157 34 21 17 47 46 58
65 19 33 20 55 23 589 2 378 0 567 -8 592 -14 50 -56 97 -105 119 -31 14 -64
19 -145 19 -142 0 -194 -25 -244 -115 -16 -29 -17 -23 -11 130 11 344 75 689
160 866 l17 36 67 -5 c82 -5 110 7 199 89 131 120 338 247 508 312 351 135
757 145 1113 27 215 -71 411 -181 556 -312 75 -67 92 -80 129 -100 31 -16 53
-19 102 -16 71 4 68 7 107 -93 76 -191 136 -582 137 -884 0 -70 0 -70 -16 -40
-43 82 -92 104 -237 105 -129 0 -179 -18 -224 -82 l-28 -41 -3 -575 c-2 -563
-2 -576 18 -617 12 -25 38 -55 62 -71 39 -27 48 -29 163 -32 108 -4 127 -2
163 17 22 11 49 32 60 46 28 36 33 31 27 -23 -39 -352 -40 -355 -97 -384 -48
-24 -470 -115 -616 -132 -45 -6 -53 -4 -59 11 -14 37 -58 85 -102 111 l-46 27
-285 0 c-324 0 -328 -1 -400 -82 -43 -49 -67 -128 -54 -179 16 -66 55 -125
101 -154 l47 -30 302 0 302 0 48 32 c32 21 58 50 74 80 l24 47 86 11 c47 7
150 25 230 41 385 78 430 93 488 166 47 61 56 108 87 446 l14 158 44 49 c84
93 82 83 82 450 0 367 2 357 -81 449 l-44 49 0 93 c0 430 -78 880 -187 1082
-22 40 -24 51 -15 72 16 35 15 98 -1 138 -8 18 -41 57 -73 89 -286 273 -654
454 -1064 523 -92 15 -439 28 -525 19z m440 -140 c300 -39 571 -140 819 -305
100 -67 260 -198 280 -231 15 -25 -4 -70 -37 -86 -35 -17 -50 -9 -147 78 -168
151 -413 287 -642 356 -192 58 -453 88 -639 73 -412 -33 -752 -172 -1052 -429
-50 -44 -98 -81 -107 -83 -44 -11 -100 45 -81 81 15 27 124 126 207 188 259
192 598 327 909 362 130 15 361 13 490 -4z m-1435 -1814 c20 -20 20 -33 20
-558 0 -470 -2 -540 -16 -560 -14 -20 -23 -22 -110 -22 -143 0 -134 -21 -134
324 0 316 0 316 -65 316 -61 0 -65 -16 -65 -258 l0 -214 -32 19 c-18 10 -46
38 -63 62 l-30 43 -3 261 c-4 306 0 330 66 394 24 24 48 43 53 43 5 0 9 -25 9
-55 0 -64 22 -95 69 -95 51 0 61 28 61 162 0 154 3 158 130 158 77 0 93 -3
110 -20z m2589 -6 c19 -24 21 -40 21 -142 0 -128 10 -152 60 -152 40 0 64 33
70 96 l5 54 36 -24 c20 -14 46 -45 58 -69 20 -41 21 -59 21 -323 l0 -280 -29
-45 c-15 -24 -42 -52 -59 -62 l-31 -17 -3 221 c-3 205 -4 222 -22 235 -11 8
-31 14 -45 14 -57 0 -56 4 -61 -309 -6 -351 2 -331 -133 -331 -70 0 -95 4
-109 17 -17 15 -18 46 -18 564 l0 548 22 15 c16 12 47 16 109 16 83 0 89 -1
108 -26z m-795 -1743 c53 -50 39 -138 -25 -160 -47 -16 -496 -15 -529 2 -14 7
-34 29 -44 48 -17 32 -18 40 -6 69 7 18 27 41 44 51 29 18 50 19 283 17 250
-3 252 -3 277 -27z"/>
<path d="M1885 2384 c-94 -14 -238 -49 -290 -71 -199 -83 -344 -217 -415 -383
-32 -75 -40 -249 -15 -336 22 -79 82 -177 147 -243 49 -50 189 -151 209 -151
5 0 9 -30 9 -67 -1 -63 -11 -105 -50 -199 -17 -40 -6 -82 25 -96 37 -17 191
13 278 55 78 37 167 106 207 161 23 31 31 34 90 40 163 17 346 81 466 164 268
184 351 489 202 749 -67 118 -214 240 -367 302 -130 54 -381 92 -496 75z m327
-157 c172 -45 310 -131 397 -247 90 -121 107 -282 44 -411 -61 -123 -204 -240
-360 -294 -78 -27 -224 -55 -290 -55 -39 0 -49 -5 -72 -32 -71 -86 -145 -151
-204 -178 -72 -35 -92 -38 -82 -12 10 24 19 225 11 256 -4 18 -27 35 -88 68
-113 59 -207 153 -255 254 -33 70 -36 84 -36 164 0 77 3 95 32 155 77 165 238
283 458 334 107 25 121 26 248 24 70 -1 129 -9 197 -26z"/>
<path d="M1555 1826 c-34 -15 -55 -52 -55 -97 0 -42 50 -89 95 -89 48 0 95 47
95 95 0 49 -15 74 -55 91 -41 17 -42 17 -80 0z"/>
<path d="M1938 1824 c-57 -31 -66 -107 -19 -155 35 -34 72 -37 118 -9 61 37
54 133 -12 164 -40 19 -52 19 -87 0z"/>
<path d="M2334 1830 c-33 -13 -54 -50 -54 -96 0 -35 5 -47 31 -68 39 -33 79
-33 117 -1 56 47 50 129 -12 159 -38 18 -51 19 -82 6z"/>
</g>
</svg>
