<?xml version="1.0" standalone="no"?>
<svg version="1.0" xmlns="http://www.w3.org/2000/svg"
 width="400.000000pt" height="400.000000pt" viewBox="0 0 400.000000 400.000000"
 preserveAspectRatio="xMidYMid meet">

<g transform="translate(0.000000,400.000000) scale(0.100000,-0.100000)"
fill="#000000" stroke="none">
<path d="M672 3984 l-22 -15 0 -1326 0 -1327 48 -44 c26 -25 112 -104 192
-176 80 -72 174 -158 210 -191 107 -98 254 -231 440 -400 96 -87 200 -181 230
-209 30 -28 116 -106 191 -173 l137 -123 554 0 c418 0 557 3 566 12 9 9 12
203 12 813 l0 801 -116 274 c-64 151 -172 408 -241 570 -69 162 -148 349 -175
415 -110 260 -170 401 -183 425 -13 24 -75 82 -465 435 -96 87 -177 161 -180
164 -3 3 -26 25 -52 49 l-48 42 -538 0 c-470 0 -540 -2 -560 -16z m358 -134
c11 -11 64 -59 117 -107 54 -48 100 -90 103 -94 3 -3 55 -50 115 -105 61 -55
133 -121 160 -147 l50 -47 -64 0 -63 0 -107 98 c-58 53 -108 99 -111 102 -3 3
-79 73 -170 155 -91 82 -166 153 -168 157 -2 4 24 8 57 8 48 0 65 -4 81 -20z
m444 -52 c45 -39 88 -78 96 -87 8 -9 80 -75 160 -146 80 -72 165 -150 190
-173 l45 -42 -95 0 -96 0 -84 76 c-47 42 -110 100 -140 128 -30 29 -119 109
-197 180 -79 70 -143 130 -143 132 0 2 41 4 92 4 l91 0 81 -72z m312 10 c38
-34 71 -64 74 -68 3 -3 70 -64 149 -135 80 -72 174 -158 210 -192 l66 -62 -61
-1 c-56 0 -65 3 -98 33 -420 378 -525 473 -525 480 -1 4 26 7 58 7 58 0 60 -1
127 -62z m-827 -188 c51 -47 103 -94 115 -105 174 -157 296 -270 300 -279 2
-6 22 -54 44 -106 37 -90 263 -622 359 -850 25 -58 55 -130 68 -160 12 -30 44
-104 70 -165 26 -60 71 -168 101 -240 l54 -130 0 -687 c0 -379 -3 -688 -6
-688 -3 0 -56 46 -117 102 -98 90 -140 128 -207 188 -9 8 -61 55 -116 105 -54
49 -128 116 -164 150 -78 72 -240 219 -330 300 -36 32 -90 81 -120 109 -30 28
-94 87 -142 130 l-88 78 0 1206 0 1205 43 -39 c23 -22 85 -77 136 -124z m751
-409 c0 -8 72 -182 200 -481 10 -25 32 -76 48 -115 42 -100 251 -594 267 -630
64 -149 125 -297 125 -305 0 -6 -35 -10 -85 -10 -97 0 -86 -11 -148 140 -19
47 -73 175 -120 285 -138 326 -355 840 -417 988 l-58 137 94 0 c52 0 94 -4 94
-9z m413 -66 c66 -159 221 -525 247 -585 15 -36 65 -153 110 -260 45 -107 92
-220 105 -250 89 -207 155 -365 155 -372 0 -4 -54 -8 -121 -8 l-120 0 -15 38
c-9 20 -44 105 -79 187 -35 83 -96 227 -135 320 -101 239 -130 306 -145 340
-7 17 -34 80 -59 140 -24 61 -83 200 -130 310 -47 110 -86 203 -86 208 0 4 55
6 122 5 l121 -3 30 -70z m324 -3 c54 -129 440 -1041 549 -1296 35 -82 64 -155
64 -163 0 -11 -18 -13 -86 -11 l-87 3 -47 110 c-26 61 -71 166 -100 235 -29
69 -58 139 -65 155 -7 17 -25 57 -39 90 -14 33 -59 139 -100 235 -41 96 -104
247 -141 335 -37 88 -73 174 -80 190 -47 107 -75 175 -75 184 0 7 31 11 88 11
l87 -1 32 -77z m-57 -2312 l0 -710 -95 0 -95 0 0 710 0 710 95 0 95 0 0 -710z
m390 130 l0 -580 -130 0 -130 0 0 580 0 580 130 0 130 0 0 -580z m326 557 c3
-13 4 -332 2 -708 l-3 -684 -97 -3 -98 -3 0 711 0 710 95 0 c91 0 95 -1 101
-23z m-326 -1332 l0 -65 -130 0 -130 0 0 65 0 65 130 0 130 0 0 -65z"/>
<path d="M1054 2164 c-29 -28 -28 -48 8 -122 20 -41 22 -43 61 -40 32 2 45 9
56 29 13 24 12 31 -9 83 -32 80 -70 97 -116 50z"/>
<path d="M1445 2165 c-14 -13 -25 -28 -25 -33 0 -10 62 -188 120 -345 18 -48
39 -94 47 -102 33 -33 103 -4 103 43 0 14 -31 113 -70 219 -38 106 -70 197
-70 203 0 13 -42 40 -63 40 -10 0 -29 -11 -42 -25z"/>
<path d="M1189 1820 c-31 -18 -30 -55 5 -153 115 -317 115 -317 166 -317 32 0
60 28 60 60 0 31 -128 379 -148 403 -16 18 -57 22 -83 7z"/>
</g>
</svg>
