<?xml version="1.0" standalone="no"?>

<svg version="1.0" xmlns="http://www.w3.org/2000/svg"
 width="400.000000pt" height="400.000000pt" viewBox="0 0 400.000000 400.000000"
 preserveAspectRatio="xMidYMid meet">

<g transform="translate(0.000000,400.000000) scale(0.100000,-0.100000)"
fill="#000000" stroke="none">
<path d="M12 3988 c-9 -9 -12 -407 -12 -1729 0 -1585 1 -1718 17 -1730 13 -12
168 -14 915 -14 l900 0 19 24 c24 29 19 67 -13 94 -19 16 -75 17 -869 17
l-849 0 0 1615 0 1615 1228 -2 1227 -3 5 -893 c5 -976 1 -912 63 -912 15 0 36
9 47 20 20 20 20 30 18 956 -3 818 -5 936 -18 944 -24 15 -2663 13 -2678 -2z"/>
<path d="M396 3658 c-14 -20 -16 -169 -16 -1400 0 -1365 0 -1378 20 -1398 20
-20 33 -20 786 -20 508 0 772 3 785 10 14 8 19 21 19 50 0 74 43 70 -762 70
l-718 0 0 1290 0 1290 870 0 870 0 0 -776 c0 -778 1 -804 34 -826 24 -17 65
-8 85 18 21 27 21 32 21 841 0 818 -1 843 -34 865 -6 4 -446 8 -978 8 l-967 0
-15 -22z"/>
<path d="M1138 3168 c-102 -118 -264 -313 -287 -345 -28 -38 -23 -75 14 -99
21 -13 30 -14 53 -5 27 12 347 388 366 430 13 31 -21 75 -61 79 -26 3 -38 -5
-85 -60z"/>
<path d="M1578 3154 c-75 -90 -83 -105 -74 -139 8 -30 49 -49 81 -38 32 11
155 163 155 190 0 32 -34 63 -70 63 -25 0 -40 -12 -92 -76z"/>
<path d="M1286 2803 c-69 -76 -308 -369 -319 -390 -21 -45 27 -98 76 -85 18 5
94 91 280 315 66 81 87 113 87 136 0 70 -70 83 -124 24z"/>
<path d="M240 2503 c-37 -13 -40 -33 -40 -241 0 -121 4 -211 10 -223 13 -22
62 -26 79 -5 8 9 11 79 9 231 -3 205 -4 218 -23 230 -11 7 -27 10 -35 8z"/>
<path d="M2853 2060 c-27 -11 -38 -33 -47 -90 -3 -25 -11 -68 -18 -96 l-11
-52 -75 -33 c-41 -18 -108 -56 -148 -85 l-74 -53 -104 37 c-97 34 -105 35
-127 20 -13 -9 -62 -84 -108 -167 -63 -114 -82 -156 -77 -175 3 -13 40 -53 82
-89 l77 -64 -1 -179 0 -178 -81 -76 c-51 -47 -82 -83 -81 -95 0 -23 163 -314
182 -327 20 -13 76 -4 153 26 38 14 75 26 82 26 7 0 36 -18 65 -40 54 -42 200
-120 223 -120 12 0 45 -143 45 -192 0 -10 9 -27 20 -38 19 -19 33 -20 203 -20
165 0 186 2 200 18 10 10 17 25 17 33 0 8 7 53 16 102 l16 87 74 34 c40 19
108 58 150 87 l76 53 98 -34 c79 -27 104 -32 125 -25 21 8 47 45 111 160 46
83 84 160 84 173 0 15 -15 37 -42 60 -23 20 -60 55 -84 77 l-42 40 9 75 c9 67
5 192 -7 245 -4 15 16 37 81 93 100 86 103 98 50 186 -19 32 -35 60 -35 61 0
18 -108 179 -125 187 -19 9 -42 4 -124 -26 l-100 -37 -53 41 c-29 22 -96 62
-149 88 l-97 47 -17 100 c-26 146 -24 145 -228 144 -89 0 -172 -4 -184 -9z
m277 -124 c0 -3 6 -36 14 -73 8 -38 17 -82 20 -98 6 -32 38 -65 63 -65 31 0
182 -82 247 -135 38 -30 77 -55 86 -55 10 0 57 14 104 31 48 18 88 30 90 28 2
-2 25 -42 51 -88 l47 -84 -58 -51 c-106 -93 -107 -94 -100 -129 29 -136 31
-259 5 -350 -13 -49 -4 -64 84 -137 36 -30 66 -58 66 -61 1 -3 -20 -42 -46
-88 -46 -81 -47 -82 -79 -77 -17 4 -59 18 -93 31 -33 14 -67 25 -75 25 -8 0
-38 -21 -68 -46 -67 -58 -174 -122 -232 -139 -69 -21 -84 -32 -91 -67 -3 -18
-13 -66 -22 -105 l-15 -73 -98 0 -98 0 -18 97 c-20 103 -34 128 -81 139 -58
13 -171 76 -242 134 -41 33 -78 60 -83 60 -5 0 -48 -14 -95 -30 -46 -16 -90
-30 -96 -30 -7 0 -33 37 -59 83 l-48 82 38 34 c123 112 124 113 118 151 -26
154 -29 226 -9 315 19 92 25 81 -95 187 l-53 47 47 81 c26 44 51 83 55 85 4 3
44 -8 89 -25 45 -16 92 -30 106 -30 15 0 44 19 78 49 61 56 156 111 234 136
30 9 59 26 66 38 7 12 22 64 32 115 l18 92 98 0 c54 0 98 -2 98 -4z"/>
<path d="M2893 1465 c-112 -34 -211 -123 -270 -242 -37 -76 -38 -79 -38 -193
1 -107 3 -119 31 -180 97 -204 317 -310 529 -255 131 34 230 116 292 242 38
76 38 78 38 197 0 117 -1 123 -34 191 -44 90 -131 176 -220 219 -60 28 -75 31
-176 33 -67 1 -126 -4 -152 -12z m192 -116 c75 -14 133 -47 189 -110 140 -156
86 -404 -109 -499 -74 -36 -188 -35 -267 2 -198 92 -250 340 -106 504 46 52
101 84 172 99 33 7 61 14 62 14 0 1 27 -4 59 -10z"/>
</g>
</svg>
