<?xml version="1.0" standalone="no"?>
<!DOCTYPE svg PUBLIC "-//W3C//DTD SVG 20010904//EN"
 "http://www.w3.org/TR/2001/REC-SVG-20010904/DTD/svg10.dtd">
<svg version="1.0" xmlns="http://www.w3.org/2000/svg"
 width="401.000000pt" height="401.000000pt" viewBox="0 0 401.000000 401.000000"
 preserveAspectRatio="xMidYMid meet">

<g transform="translate(0.000000,401.000000) scale(0.100000,-0.100000)"
fill="#000000" stroke="none">
<path d="M1985 3989 c-22 -12 -76 -43 -120 -69 -44 -26 -155 -91 -248 -144
l-167 -96 -390 0 -389 0 -15 -22 c-14 -20 -16 -194 -16 -1664 0 -1577 1 -1642
18 -1657 17 -15 59 -17 388 -17 l369 -1 90 -157 c117 -203 97 -200 335 -61 96
55 192 111 214 123 21 11 46 26 55 31 9 6 37 22 63 38 l47 27 420 0 c369 0
421 2 435 16 15 14 16 108 14 927 l-3 912 -27 13 c-26 12 -54 7 -78 -15 -3 -3
-7 -392 -10 -866 l-5 -862 -1097 -3 -1098 -2 0 1555 0 1555 1100 0 1099 0 3
-117 3 -118 29 -14 c26 -12 33 -12 55 0 l26 15 3 163 c2 142 0 166 -14 182
-16 18 -40 19 -418 19 l-402 0 -88 154 c-59 102 -96 158 -113 165 -30 14 -21
15 -68 -10z m69 -222 c25 -43 46 -80 46 -82 0 -3 -84 -5 -187 -5 -136 0 -184
3 -176 11 11 11 267 159 269 156 1 -1 23 -37 48 -80z m-114 -3454 c0 -5 -35
-27 -78 -51 -42 -23 -104 -58 -138 -77 l-61 -35 -47 80 c-25 44 -46 82 -46 85
0 3 83 5 185 5 102 0 185 -3 185 -7z"/>
<path d="M3594 3463 c-17 -10 -49 -28 -70 -40 -22 -11 -118 -68 -214 -125 -96
-57 -182 -107 -190 -111 -8 -4 -24 -13 -35 -20 -11 -7 -42 -25 -70 -41 -27
-16 -102 -60 -165 -97 -170 -99 -514 -300 -684 -398 l-148 -86 -152 -230
c-208 -313 -205 -308 -186 -342 14 -26 21 -28 85 -31 118 -6 566 28 600 46 17
8 91 51 165 95 169 99 320 187 525 307 285 166 398 232 505 295 58 34 170 99
248 146 169 98 187 118 187 204 0 48 -5 68 -26 100 -14 22 -40 67 -58 100 -64
116 -112 192 -137 216 -33 31 -134 38 -180 12z m189 -267 c48 -84 87 -159 87
-165 0 -14 -90 -72 -101 -65 -4 2 -31 44 -59 93 -50 88 -63 101 -101 101 -25
0 -59 -35 -59 -61 0 -12 23 -62 52 -111 50 -87 51 -91 32 -105 -17 -12 -148
-90 -519 -306 -66 -38 -151 -89 -190 -112 -38 -23 -158 -93 -265 -155 -107
-62 -212 -123 -232 -136 -20 -13 -39 -20 -41 -16 -3 4 -8 27 -12 52 -11 67
-68 171 -125 230 -28 29 -48 56 -43 60 8 7 53 33 331 196 84 49 165 96 180
105 82 48 281 164 307 179 17 10 68 40 115 67 438 257 534 311 544 307 6 -2
50 -74 99 -158z m-1637 -838 c54 -50 91 -118 105 -195 13 -68 8 -73 -72 -73
l-56 0 -7 41 c-8 53 -36 107 -74 143 l-31 28 32 49 c18 27 38 49 45 49 7 0 33
-19 58 -42z m-183 -193 c15 -14 33 -73 25 -80 -7 -7 -118 -15 -118 -8 0 12 62
103 70 103 5 0 15 -7 23 -15z"/>
<path d="M1054 3282 c-39 -25 -36 -90 5 -111 29 -16 290 -14 321 2 19 9 26 22
28 48 5 64 -8 69 -186 69 -86 0 -162 -4 -168 -8z"/>
<path d="M1690 3270 c-27 -27 -25 -56 5 -85 l24 -25 471 0 471 0 25 26 c20 19
24 31 19 52 -12 53 -3 52 -517 52 -465 0 -479 -1 -498 -20z"/>
<path d="M235 2979 c-104 -61 -200 -117 -212 -125 -32 -20 -30 -76 3 -134 15
-25 34 -58 44 -75 10 -16 61 -106 115 -199 53 -93 106 -183 116 -200 10 -17
35 -62 56 -99 37 -67 63 -86 103 -78 25 5 50 33 50 55 0 12 -55 116 -122 231
-66 116 -148 257 -180 314 l-60 104 23 18 c13 10 27 19 30 19 14 0 285 163
297 178 6 9 12 24 12 34 0 24 -44 68 -67 68 -10 0 -103 -50 -208 -111z"/>
<path d="M1050 2822 c-30 -24 -30 -70 0 -94 21 -17 54 -18 496 -18 461 0 475
1 494 20 24 24 26 57 4 88 l-15 22 -478 0 c-447 0 -480 -1 -501 -18z"/>
<path d="M1042 2425 c-24 -30 -18 -70 13 -91 19 -12 69 -14 305 -12 265 3 282
4 296 22 19 27 18 70 -4 89 -16 15 -52 17 -305 17 l-286 0 -19 -25z"/>
<path d="M1054 2052 c-23 -15 -34 -50 -24 -76 15 -39 64 -48 249 -44 157 3
163 4 182 27 23 28 24 49 3 79 -15 21 -20 22 -207 22 -106 0 -197 -4 -203 -8z"/>
<path d="M3240 1801 c-15 -29 -11 -72 10 -106 10 -16 27 -46 38 -65 11 -19 68
-118 126 -219 58 -102 104 -187 101 -189 -2 -3 -67 -42 -142 -86 -133 -79
-138 -83 -141 -118 -4 -43 18 -68 56 -68 38 1 363 191 382 224 14 24 13 29
-19 88 -78 142 -290 505 -311 531 -27 34 -83 38 -100 8z"/>
</g>
</svg>
