<?xml version="1.0" standalone="no"?>
<svg version="1.0" xmlns="http://www.w3.org/2000/svg"
 width="400.000000pt" height="400.000000pt" viewBox="0 0 400.000000 400.000000"
 preserveAspectRatio="xMidYMid meet">

<g transform="translate(0.000000,400.000000) scale(0.100000,-0.100000)"
fill="#000000" stroke="none">
<path d="M17 3982 c-16 -17 -17 -151 -17 -1729 0 -1644 1 -1711 18 -1726 17
-16 124 -17 1333 -17 1174 0 1317 2 1337 16 22 15 22 16 22 338 0 300 -1 324
-18 339 -24 22 -65 21 -85 -1 -15 -16 -17 -51 -17 -290 l0 -272 -1230 0 -1230
0 0 1615 0 1615 1230 0 1230 0 2 -602 3 -602 26 -15 c22 -12 29 -12 55 0 l29
14 3 649 c2 594 1 651 -14 668 -16 17 -69 18 -1339 18 -1268 0 -1323 -1 -1338
-18z"/>
<path d="M412 3664 l-22 -15 0 -1394 0 -1394 22 -15 c20 -14 129 -16 974 -16
947 0 951 0 978 21 l26 20 0 285 c0 271 -1 285 -20 304 -26 26 -64 25 -90 -2
-19 -21 -20 -34 -20 -260 l0 -238 -870 0 -870 0 0 1295 0 1295 870 0 870 0 0
-558 c0 -621 -2 -602 65 -602 67 0 65 -24 65 646 l0 603 -26 20 c-27 21 -31
21 -978 21 -845 0 -954 -2 -974 -16z"/>
<path d="M1138 3158 c-29 -35 -74 -88 -98 -118 -25 -30 -55 -66 -66 -80 -123
-145 -134 -161 -134 -188 0 -58 71 -83 113 -39 12 12 40 45 63 72 23 28 88
106 146 175 57 69 110 135 116 147 27 51 3 93 -52 93 -29 0 -42 -9 -88 -62z"/>
<path d="M1576 3139 c-71 -86 -82 -122 -48 -152 22 -20 62 -22 84 -4 39 30
128 151 128 174 0 45 -17 63 -59 63 -36 0 -43 -5 -105 -81z"/>
<path d="M1329 2832 c-9 -4 -93 -99 -187 -212 -141 -169 -171 -211 -171 -237
-1 -35 28 -63 64 -63 30 0 84 60 338 373 52 63 58 96 27 127 -20 20 -42 24
-71 12z"/>
<path d="M228 2489 c-16 -9 -18 -31 -18 -235 l0 -224 26 -10 c17 -7 32 -7 45
0 18 10 19 23 19 235 0 212 -1 225 -19 235 -24 12 -31 12 -53 -1z"/>
<path d="M2730 2436 c-122 -27 -241 -108 -296 -202 l-26 -44 -152 0 c-187 0
-187 0 -194 -120 l-5 -80 -237 0 c-217 0 -238 -2 -253 -18 -22 -24 -21 -65 1
-85 16 -15 49 -17 255 -17 l237 0 0 -65 c0 -83 19 -125 58 -126 15 0 86 0 159
1 l132 1 39 -59 c95 -139 252 -236 416 -258 23 -3 56 -7 74 -10 l32 -5 0 -95
c0 -167 48 -230 203 -263 l57 -12 0 -108 c0 -90 -3 -110 -17 -123 -10 -8 -62
-32 -116 -53 -110 -43 -171 -95 -182 -158 -4 -19 -5 -111 -3 -204 l3 -170 34
-51 c21 -30 55 -63 86 -81 l51 -31 337 0 c312 0 341 1 375 19 53 27 91 68 119
128 23 50 24 60 21 240 -3 180 -4 190 -27 224 -14 20 -51 53 -83 74 -32 21
-63 46 -68 56 -6 10 -10 145 -10 318 0 280 1 301 18 301 31 0 118 58 160 105
70 80 73 100 70 457 l-3 313 -27 46 c-34 58 -97 115 -157 143 -45 20 -58 21
-536 23 -352 1 -506 -2 -545 -11z m1061 -152 c82 -59 84 -69 84 -391 l0 -281
-31 -44 c-18 -23 -52 -53 -75 -66 l-44 -23 -420 3 c-407 4 -422 4 -490 27
-122 40 -209 105 -271 203 -23 36 -24 45 -24 226 l0 188 30 47 c16 26 52 61
82 81 96 64 109 65 640 63 l476 -2 43 -31z m-1403 -351 l-3 -128 -92 -3 -92
-3 -3 103 c-2 57 -2 115 0 131 l3 27 95 0 95 0 -3 -127z m842 -703 l0 -120
-27 6 c-94 23 -103 35 -103 145 l0 89 65 0 65 0 0 -120z m390 -190 c0 -338 2
-353 56 -404 16 -15 50 -40 75 -56 25 -17 51 -41 57 -54 6 -14 10 -80 9 -162
-2 -158 -14 -192 -77 -225 -31 -17 -61 -19 -313 -19 -391 0 -380 -7 -385 234
-4 187 -9 177 101 219 138 55 156 67 187 121 l30 51 0 303 0 302 130 0 130 0
0 -310z"/>
<path d="M3550 2123 c-58 -12 -80 -72 -39 -109 18 -16 37 -19 111 -19 82 0 91
2 109 24 24 29 24 52 1 81 -15 19 -30 23 -88 25 -38 2 -80 1 -94 -2z"/>
<path d="M3506 1778 c-20 -28 -20 -57 -1 -82 12 -16 28 -19 112 -18 88 0 99 2
115 22 22 27 23 49 2 78 -14 20 -23 22 -114 22 -91 0 -100 -2 -114 -22z"/>
</g>
</svg>
