<?xml version="1.0" standalone="no"?>

<svg version="1.0" xmlns="http://www.w3.org/2000/svg"
 width="400.000000pt" height="400.000000pt" viewBox="0 0 400.000000 400.000000"
 preserveAspectRatio="xMidYMid meet">

<g transform="translate(0.000000,400.000000) scale(0.100000,-0.100000)"
fill="#000000" stroke="none">
<path d="M1112 3984 l-22 -15 0 -1323 0 -1324 162 -149 c90 -82 242 -220 338
-308 191 -173 304 -276 479 -436 63 -57 142 -129 176 -159 34 -30 114 -103
179 -162 l117 -108 198 0 c140 0 200 3 209 12 9 9 12 320 12 1339 l0 1327 -43
39 c-54 47 -255 230 -322 293 -27 25 -102 93 -165 150 -115 103 -290 262 -320
290 -8 8 -83 76 -165 150 -83 74 -152 137 -155 140 -3 4 -57 53 -120 110 -63
57 -117 106 -120 110 -3 3 -16 14 -30 23 -35 24 -374 25 -408 1z m388 -157
c25 -23 162 -148 305 -277 143 -129 285 -257 315 -286 30 -28 154 -141 275
-251 121 -110 245 -223 275 -251 l55 -51 -63 -1 -64 0 -116 107 c-65 59 -139
128 -167 153 -71 66 -478 436 -609 554 -93 83 -187 169 -356 323 l-25 23 65 0
c63 0 67 -2 110 -43z m-153 -153 c150 -138 320 -293 387 -353 34 -30 66 -60
71 -66 6 -6 75 -70 155 -141 79 -71 151 -136 160 -144 9 -8 100 -91 203 -184
l187 -170 0 -1204 0 -1204 -42 37 c-24 21 -65 59 -93 85 -27 25 -97 88 -155
140 -58 51 -107 96 -110 99 -3 4 -54 51 -115 105 -60 55 -114 104 -120 110 -5
6 -55 51 -110 100 -55 49 -147 133 -204 185 -58 53 -127 116 -155 141 -27 25
-76 70 -109 100 -32 30 -63 57 -68 58 -5 2 -9 494 -9 1208 0 1035 2 1204 14
1197 8 -4 59 -49 113 -99z m1483 -2324 l0 -1230 -95 0 -95 0 0 1230 0 1230 95
0 95 0 0 -1230z"/>
<path d="M1561 3076 c-21 -25 -82 -219 -79 -250 4 -43 50 -66 87 -45 14 8 30
29 36 47 5 17 12 32 15 32 4 0 31 -43 60 -95 56 -103 61 -137 25 -191 -32 -50
-60 -59 -195 -62 -137 -4 -160 -13 -160 -62 0 -52 22 -60 176 -60 130 0 144 2
192 26 65 32 110 88 129 162 24 91 14 131 -67 276 l-33 59 35 -7 c39 -7 71 13
82 51 11 37 -30 68 -134 102 -103 34 -151 39 -169 17z"/>
<path d="M1373 2241 c-28 -26 -30 -72 -5 -94 15 -14 41 -17 138 -17 134 0 167
-12 204 -72 29 -48 25 -77 -21 -165 -65 -122 -65 -122 -82 -80 -18 42 -47 60
-82 51 -28 -7 -45 -31 -45 -63 0 -31 67 -222 83 -239 22 -21 52 -18 163 18
108 35 149 66 138 103 -10 38 -44 59 -81 52 l-34 -6 51 98 c59 115 69 167 46
244 -20 69 -64 123 -130 156 -46 24 -64 27 -186 31 -127 4 -136 3 -157 -17z"/>
<path d="M3500 3980 c-15 -15 -20 -33 -20 -75 0 -64 22 -95 69 -95 41 0 61 32
61 97 0 60 -23 93 -65 93 -14 0 -34 -9 -45 -20z"/>
<path d="M3112 3758 c-13 -13 -16 -56 -6 -83 9 -21 76 -55 112 -55 49 0 76 46
52 91 -23 43 -130 75 -158 47z"/>
<path d="M3868 3748 c-47 -27 -63 -60 -46 -96 32 -67 178 -13 178 66 0 50 -69
67 -132 30z"/>
<path d="M3429 3712 c-97 -51 -146 -143 -136 -255 12 -134 114 -227 250 -227
78 0 118 14 171 60 70 62 102 173 77 267 -41 151 -222 228 -362 155z m190
-121 c45 -25 66 -116 38 -170 -16 -33 -69 -63 -111 -63 -110 0 -166 134 -90
213 45 47 99 54 163 20z"/>
<path d="M3147 3328 c-57 -34 -65 -100 -14 -128 25 -14 30 -13 75 12 26 14 54
38 62 52 13 23 13 29 0 54 -21 36 -71 40 -123 10z"/>
<path d="M3833 3338 c-37 -48 -20 -90 51 -125 53 -25 55 -26 81 -9 51 34 45
80 -15 120 -42 28 -101 35 -117 14z"/>
<path d="M3496 3138 c-10 -14 -16 -44 -16 -79 0 -65 18 -89 68 -89 42 0 62 31
62 95 0 66 -20 95 -65 95 -24 0 -39 -7 -49 -22z"/>
<path d="M3224 2956 c-27 -19 -72 -120 -80 -178 -13 -97 53 -220 139 -261 18
-9 82 -39 142 -67 61 -28 130 -61 154 -72 l43 -21 -31 -24 c-53 -42 -35 -113
29 -113 16 0 74 16 130 37 135 48 136 50 87 191 -21 58 -45 114 -54 124 -16
18 -59 24 -79 10 -21 -13 -35 -52 -28 -77 3 -14 3 -25 -1 -25 -23 0 -354 165
-372 185 -35 40 -40 89 -13 149 29 65 35 107 18 128 -19 25 -59 31 -84 14z"/>
<path d="M320 2675 l-95 -95 -93 0 c-143 0 -132 21 -132 -257 0 -213 2 -237
18 -249 11 -9 49 -13 112 -14 l95 0 95 -95 95 -95 92 0 c97 0 117 8 128 53 3
12 4 201 3 420 -4 468 9 427 -133 427 l-90 0 -95 -95z m190 -355 l0 -320 -22
0 c-14 0 -56 33 -119 95 l-96 95 -77 0 -76 0 0 130 0 130 78 0 77 0 95 95 c64
64 102 95 117 95 l23 0 0 -320z"/>
<path d="M785 2496 c-22 -16 -25 -74 -4 -90 56 -42 62 -100 17 -151 -52 -60
-35 -124 33 -125 60 0 129 101 129 190 0 55 -37 139 -75 168 -32 25 -72 28
-100 8z"/>
<path d="M291 874 c-31 -40 -26 -59 34 -121 l55 -58 0 -68 0 -69 -62 35 -62
35 -21 73 c-17 60 -26 76 -48 87 -22 11 -32 11 -54 0 -24 -12 -28 -19 -28 -58
0 -25 3 -56 7 -71 7 -23 4 -26 -39 -38 -63 -16 -73 -26 -73 -72 0 -30 6 -42
24 -54 22 -15 29 -15 77 -1 74 22 94 20 156 -15 61 -35 62 -30 -27 -81 -36
-20 -50 -24 -70 -16 -58 22 -119 29 -140 18 -18 -9 -21 -19 -18 -58 l3 -47 57
-19 c55 -17 57 -20 50 -45 -4 -14 -7 -46 -7 -71 0 -39 3 -46 26 -54 14 -5 38
-6 51 -3 27 7 37 27 61 112 11 39 20 53 45 66 17 9 42 23 56 32 14 10 28 17
31 17 3 0 5 -30 5 -67 l0 -66 -55 -58 c-58 -61 -65 -81 -39 -117 24 -34 72
-29 121 13 l40 34 33 -34 c26 -27 42 -35 70 -35 44 0 60 15 60 55 0 24 -11 42
-50 80 l-50 49 0 74 0 73 59 -33 c57 -32 60 -35 76 -93 24 -85 39 -105 78
-105 17 0 39 4 46 9 17 11 20 68 8 118 -8 32 -8 32 46 48 44 13 57 21 65 43
12 35 -1 69 -32 83 -19 9 -38 7 -91 -9 l-67 -20 -59 34 c-33 20 -57 38 -55 42
2 4 29 20 60 37 l55 30 71 -19 c65 -16 73 -16 95 -2 27 18 35 50 21 83 -6 16
-26 28 -63 40 -53 17 -54 18 -46 47 15 63 10 97 -18 118 -24 18 -30 19 -54 7
-33 -16 -37 -24 -62 -103 -17 -54 -22 -61 -75 -92 l-58 -33 0 72 0 73 50 49
c56 55 64 91 30 125 -31 31 -61 25 -105 -20 l-38 -39 -43 39 c-52 47 -84 51
-113 14z"/>
<path d="M1250 761 c-38 -12 -91 -41 -127 -68 -51 -38 -42 -99 17 -118 14 -4
42 6 86 29 124 68 161 49 268 -137 41 -72 87 -152 102 -176 l26 -43 -31 7
c-46 10 -81 -15 -81 -59 0 -46 22 -61 130 -91 112 -30 142 -31 162 -7 16 18
58 160 65 222 6 46 -21 73 -69 68 -26 -2 -36 -10 -49 -36 -18 -39 -19 -38 -69
53 -74 133 -153 262 -178 288 -15 16 -45 38 -67 49 -43 22 -144 33 -185 19z"/>
</g>
</svg>
