<?xml version="1.0" standalone="no"?>

<svg version="1.0" xmlns="http://www.w3.org/2000/svg"
 width="400.000000pt" height="400.000000pt" viewBox="0 0 400.000000 400.000000"
 preserveAspectRatio="xMidYMid meet">

<g transform="translate(0.000000,400.000000) scale(0.100000,-0.100000)"
fill="#000000" stroke="none">
<path d="M1208 3976 c-37 -13 -87 -35 -111 -49 -106 -62 -208 -186 -258 -312
l-24 -60 -3 -618 c-2 -532 -1 -627 13 -680 52 -209 206 -369 413 -428 58 -16
101 -19 312 -19 187 0 260 4 305 15 243 62 427 284 437 526 3 78 -10 99 -61
99 -44 0 -53 -14 -66 -102 -17 -115 -61 -205 -135 -278 -71 -68 -142 -106
-241 -126 -68 -14 -83 -14 -149 0 -185 39 -311 155 -364 335 -23 79 -24 1156
-1 1244 22 85 53 143 107 202 138 152 340 192 524 106 138 -65 235 -199 258
-359 12 -89 26 -112 66 -112 47 0 64 31 62 111 -5 129 -71 269 -177 373 -64
63 -123 99 -222 132 -69 23 -81 24 -345 23 -259 0 -276 -1 -340 -23z m74 -163
c-62 -73 -97 -134 -125 -220 -22 -67 -22 -74 -22 -688 l0 -620 24 -70 c29 -85
79 -171 132 -226 22 -23 38 -44 35 -46 -9 -9 -132 37 -177 66 -55 35 -131 116
-157 167 -53 104 -53 105 -50 755 l3 604 32 67 c31 66 108 159 167 201 33 23
141 66 169 66 14 1 7 -13 -31 -56z"/>
<path d="M1596 3205 c-73 -30 -147 -100 -178 -169 -34 -75 -32 -201 5 -272 38
-75 115 -139 194 -164 61 -19 93 -20 469 -20 l404 0 0 -1153 c0 -1293 -4
-1214 74 -1310 116 -143 338 -158 470 -32 55 53 80 101 96 180 8 44 10 421 8
1385 -3 1263 -4 1327 -22 1373 -25 66 -104 149 -168 178 l-53 24 -620 2 -620
3 -59 -25z m927 -157 c-25 -48 -28 -66 -33 -193 l-5 -140 -410 0 c-396 0 -411
1 -450 21 -141 74 -135 279 10 345 37 17 75 19 478 19 l437 0 -27 -52z m377
28 c49 -25 84 -69 100 -125 6 -23 10 -498 10 -1342 0 -1416 2 -1358 -53 -1417
-24 -26 -77 -56 -118 -65 -41 -10 -121 18 -156 55 -68 72 -63 -44 -63 1430 0
1275 1 1335 19 1373 48 103 160 143 261 91z"/>
</g>
</svg>
