<?xml version="1.0" standalone="no"?>

<svg version="1.0" xmlns="http://www.w3.org/2000/svg"
 width="400.000000pt" height="400.000000pt" viewBox="0 0 400.000000 400.000000"
 preserveAspectRatio="xMidYMid meet">

<g transform="translate(0.000000,400.000000) scale(0.100000,-0.100000)"
fill="#000000" stroke="none">
<path d="M407 3982 c-16 -17 -17 -151 -17 -1725 0 -1694 0 -1707 20 -1727 20
-20 33 -20 1335 -20 1302 0 1315 0 1335 20 20 20 20 33 20 1729 0 1541 -2
1711 -16 1725 -14 14 -149 16 -1338 16 -1269 0 -1324 -1 -1339 -18z m2568
-1722 l0 -1615 -1227 -3 -1228 -2 0 1620 0 1620 1228 -2 1227 -3 0 -1615z"/>
<path d="M797 3662 c-16 -17 -17 -129 -17 -1404 0 -1329 1 -1386 18 -1401 17
-16 100 -17 984 -17 922 0 966 1 981 18 16 17 17 129 17 1405 l0 1386 -22 15
c-20 14 -130 16 -984 16 -918 0 -962 -1 -977 -18z m1853 -1407 l0 -1295 -870
0 -870 0 0 1295 0 1295 870 0 870 0 0 -1295z"/>
<path d="M1588 3219 c-10 -5 -61 -62 -115 -127 -54 -64 -100 -119 -103 -122
-4 -3 -36 -42 -73 -88 -72 -89 -81 -118 -46 -153 28 -28 72 -19 107 23 275
324 322 384 322 415 0 49 -50 77 -92 52z"/>
<path d="M2043 3223 c-7 -2 -42 -40 -78 -83 -72 -87 -83 -126 -43 -154 43 -31
63 -21 138 67 55 64 70 89 70 114 0 45 -44 74 -87 56z"/>
<path d="M1713 2832 c-6 -4 -88 -99 -182 -212 -181 -217 -191 -235 -151 -278
43 -46 59 -35 207 142 70 83 130 153 133 156 27 22 90 116 90 134 0 50 -56 84
-97 58z"/>
<path d="M612 2488 c-17 -17 -17 -439 0 -456 14 -14 47 -16 66 -3 18 11 20
434 2 456 -15 18 -51 20 -68 3z"/>
<path d="M3446 3921 c-64 -64 -79 -86 -79 -110 0 -16 5 -37 13 -45 17 -21 69
-20 92 1 17 16 18 -32 18 -1507 0 -1475 -1 -1523 -18 -1507 -38 35 -95 15
-108 -36 -6 -24 3 -37 82 -117 64 -66 94 -90 113 -90 36 0 191 156 191 193 0
55 -51 79 -112 52 -17 -7 -18 69 -18 1504 0 937 4 1511 9 1511 6 0 13 -4 16
-10 3 -5 21 -10 39 -10 52 0 82 48 56 90 -5 8 -42 48 -82 87 -99 99 -108 98
-212 -6z"/>
<path d="M469 302 c-107 -106 -107 -117 0 -224 74 -74 82 -79 117 -76 30 2 42
9 54 31 14 25 13 30 -2 56 -13 23 -13 31 -3 35 16 6 2215 7 2226 1 4 -3 1 -18
-7 -34 -16 -33 -6 -74 21 -85 47 -18 70 -6 148 73 104 106 104 116 -1 222 -63
63 -84 79 -108 79 -35 0 -47 -8 -63 -38 -10 -18 -9 -29 3 -52 l14 -30 -1123 0
-1124 0 17 30 c15 27 16 32 2 57 -12 22 -24 29 -54 31 -36 3 -43 -1 -117 -76z"/>
</g>
</svg>
