<?xml version="1.0" standalone="no"?>

<svg version="1.0" xmlns="http://www.w3.org/2000/svg"
 width="400.000000pt" height="400.000000pt" viewBox="0 0 400.000000 400.000000"
 preserveAspectRatio="xMidYMid meet">

<g transform="translate(0.000000,400.000000) scale(0.100000,-0.100000)"
fill="#000000" stroke="none">
<path d="M17 3989 c-16 -9 -17 -102 -17 -1729 l0 -1720 23 -15 c21 -14 127
-15 921 -13 875 3 898 3 912 22 20 28 17 63 -6 86 -20 20 -33 20 -875 20
l-855 0 0 1615 0 1615 1230 0 1230 0 0 -1049 0 -1050 22 -15 c31 -22 64 -20
88 4 20 20 20 33 20 1110 0 1077 0 1090 -20 1110 -20 20 -33 20 -1337 20 -877
-1 -1324 -4 -1336 -11z"/>
<path d="M404 3666 c-19 -14 -19 -41 -22 -1399 -2 -1309 -1 -1386 15 -1406
l18 -22 615 1 c678 0 640 -4 640 61 0 61 23 59 -596 59 l-564 0 0 1295 0 1295
870 0 870 0 0 -774 c0 -483 4 -784 10 -801 5 -14 22 -30 37 -36 40 -15 70 2
83 48 8 27 10 275 8 844 -3 777 -4 808 -22 828 l-19 21 -962 0 c-814 0 -964
-2 -981 -14z"/>
<path d="M1193 3220 c-12 -5 -25 -15 -30 -23 -4 -8 -27 -36 -49 -63 -264 -313
-276 -329 -276 -359 0 -33 28 -65 57 -65 31 0 46 15 181 175 64 77 136 163
160 191 57 68 63 95 30 128 -27 28 -38 30 -73 16z"/>
<path d="M1645 3219 c-36 -18 -145 -162 -145 -190 0 -29 36 -59 70 -59 25 0
40 12 92 76 35 42 67 84 72 94 13 28 -1 65 -29 78 -30 14 -33 14 -60 1z"/>
<path d="M1302 2813 c-33 -35 -90 -101 -226 -267 -88 -107 -106 -134 -106
-162 0 -40 36 -70 73 -60 14 3 85 80 183 197 217 262 212 252 169 294 -32 32
-60 32 -93 -2z"/>
<path d="M220 2490 c-21 -13 -28 -425 -8 -453 18 -24 49 -28 71 -9 15 13 17
38 17 228 0 180 -2 215 -16 228 -17 18 -42 20 -64 6z"/>
<path d="M1694 1916 c-17 -13 -19 -26 -17 -143 8 -398 92 -734 239 -953 125
-188 302 -309 509 -351 33 -6 116 -11 184 -11 l123 0 38 -81 c20 -45 56 -131
79 -192 66 -172 70 -180 112 -183 49 -4 63 16 88 128 14 62 40 131 74 200 47
94 55 105 77 103 14 -2 79 -4 145 -5 91 -2 134 2 180 16 304 91 458 376 472
872 6 218 4 224 -68 224 -72 0 -232 -43 -356 -96 -261 -111 -439 -302 -500
-534 -19 -74 -22 -247 -4 -322 11 -46 10 -49 -43 -155 -29 -59 -57 -119 -63
-132 -9 -24 -9 -24 -23 10 -7 19 -33 78 -57 132 l-44 97 15 48 c48 142 60 344
31 487 -71 346 -372 641 -807 794 -154 53 -343 77 -384 47z m286 -153 c117
-34 237 -87 339 -150 258 -162 402 -357 447 -603 15 -82 16 -108 5 -190 -6
-52 -16 -99 -21 -104 -7 -7 -10 -6 -10 1 0 14 -126 205 -183 278 -146 187
-318 355 -364 355 -36 0 -63 -27 -63 -63 0 -24 20 -49 119 -146 161 -158 249
-269 361 -455 64 -106 62 -110 -59 -100 -182 14 -303 67 -426 189 -188 185
-275 430 -315 888 -6 65 -8 123 -5 128 8 12 70 2 175 -28z m1887 -495 c-17
-364 -134 -602 -336 -683 -70 -28 -208 -44 -249 -28 -23 9 -22 10 36 83 32 41
111 125 176 186 109 104 117 114 114 145 -4 46 -42 68 -86 50 -31 -13 -231
-203 -292 -278 -19 -24 -38 -43 -43 -43 -5 0 -6 36 -2 83 20 230 160 411 407
527 76 35 233 88 267 89 12 1 13 -22 8 -131z"/>
</g>
</svg>
