<?xml version="1.0" standalone="no"?>

<svg version="1.0" xmlns="http://www.w3.org/2000/svg"
 width="400.000000pt" height="400.000000pt" viewBox="0 0 400.000000 400.000000"
 preserveAspectRatio="xMidYMid meet">

<g transform="translate(0.000000,400.000000) scale(0.100000,-0.100000)"
fill="#000000" stroke="none">
<path d="M27 3972 c-16 -17 -17 -151 -17 -1723 0 -1457 2 -1708 14 -1725 14
-18 34 -19 625 -22 601 -2 611 -2 631 18 25 25 26 72 2 93 -17 15 -68 17 -530
17 -282 0 -512 3 -512 8 0 4 42 49 93 100 l92 92 581 0 c550 0 582 1 597 18
20 22 22 61 4 85 -11 16 -60 17 -577 19 l-565 3 -3 1293 -2 1292 905 0 905 0
0 -428 c0 -477 -1 -472 64 -472 68 0 66 -14 66 486 l0 449 93 93 c51 50 96 92
100 92 4 0 7 -391 7 -868 0 -829 1 -870 18 -885 23 -21 51 -22 80 -1 l22 15 0
973 c0 743 -3 975 -12 984 -9 9 -320 12 -1338 12 -1273 0 -1328 -1 -1343 -18z
m2463 -109 c0 -4 -42 -49 -92 -100 l-93 -93 -939 0 -939 0 -93 92 c-52 50 -94
95 -94 100 0 4 506 8 1125 8 619 0 1125 -3 1125 -7z m-2247 -191 l87 -89 0
-1334 0 -1334 -95 -95 -95 -95 0 1518 c0 834 3 1517 8 1517 4 0 47 -40 95 -88z"/>
<path d="M1482 2197 c-322 -322 -372 -376 -372 -402 0 -25 27 -57 178 -207
148 -148 182 -178 206 -178 23 0 51 21 141 110 61 61 115 110 121 110 5 0 109
-100 232 -223 l223 -223 -68 -65 c-37 -36 -101 -87 -142 -113 -77 -50 -115
-84 -448 -406 -224 -216 -253 -257 -253 -357 0 -74 49 -165 114 -210 46 -32
52 -33 145 -33 82 0 101 3 133 23 20 12 119 108 220 212 101 105 219 226 262
270 42 44 108 125 146 180 37 55 93 125 124 155 l56 55 448 -448 c442 -442
448 -447 487 -447 39 0 47 6 183 143 102 103 142 150 142 167 0 25 -51 78
-597 623 -134 133 -243 246 -243 251 0 5 189 198 420 428 340 339 420 424 420
445 0 21 -38 65 -178 205 -157 158 -181 178 -210 178 -30 0 -71 -38 -454 -421
l-421 -421 -196 196 -196 196 178 178 c176 176 178 179 175 218 -3 38 -5 40
-58 57 -30 10 -81 24 -115 31 -33 8 -132 32 -220 55 -88 22 -171 41 -185 41
-20 0 -106 -80 -398 -373z m610 192 c93 -23 168 -45 168 -49 0 -3 -172 -179
-382 -389 l-382 -382 -115 115 -116 116 315 315 c173 173 322 315 330 315 8 0
90 -19 182 -41z m1396 -222 l112 -112 -427 -426 -428 -426 -90 -28 -90 -28
-115 -113 -116 -114 -49 50 -49 50 111 112 c110 113 110 113 142 208 l31 95
423 423 c232 232 424 422 427 422 3 0 56 -51 118 -113z m-1276 -464 c103 -104
188 -195 188 -203 0 -34 -54 -177 -76 -200 l-24 -25 -227 228 -228 227 80 80
c44 44 84 80 89 80 5 0 94 -84 198 -187z m1003 -1003 l389 -390 -79 -80 c-44
-44 -84 -80 -90 -80 -14 0 -835 822 -835 836 0 21 38 44 121 74 46 16 89 29
94 29 6 0 185 -175 400 -389z m-1015 175 l53 -54 -28 -41 c-23 -34 -30 -38
-43 -28 -35 29 -122 120 -122 128 0 9 60 50 75 50 6 0 35 -25 65 -55z m-196
-357 c-61 -62 -174 -177 -250 -255 l-139 -143 -51 0 c-37 0 -59 6 -78 21 -50
39 -69 104 -45 152 6 12 121 131 257 264 l247 242 85 -84 85 -85 -111 -112z"/>
</g>
</svg>
