<?xml version="1.0" standalone="no"?>

<svg version="1.0" xmlns="http://www.w3.org/2000/svg"
 width="400.000000pt" height="400.000000pt" viewBox="0 0 400.000000 400.000000"
 preserveAspectRatio="xMidYMid meet">

<g transform="translate(0.000000,400.000000) scale(0.100000,-0.100000)"
fill="#000000" stroke="none">
<path d="M10 2665 c0 -1309 0 -1334 19 -1345 13 -6 168 -10 435 -10 l415 0 15
22 c22 32 20 55 -9 83 l-24 25 -366 0 -365 0 0 1225 0 1225 905 0 904 0 3
-306 c3 -289 4 -306 22 -320 27 -20 70 -18 90 5 15 16 17 54 17 365 0 191 -3
351 -6 357 -4 5 -398 9 -1031 9 l-1024 0 0 -1335z"/>
<path d="M2223 3328 c-12 -13 -65 -99 -118 -193 -54 -93 -156 -271 -228 -395
-71 -124 -139 -241 -150 -260 -10 -19 -50 -87 -86 -150 -37 -63 -104 -178
-148 -255 -45 -77 -132 -228 -193 -335 -62 -107 -143 -247 -180 -310 -157
-269 -210 -366 -210 -386 0 -24 28 -52 90 -86 25 -14 115 -66 200 -115 85 -49
290 -167 455 -263 165 -95 359 -207 430 -248 501 -291 560 -323 585 -317 14 4
28 12 32 18 16 24 134 228 243 417 62 107 161 278 220 380 59 102 117 203 130
225 28 51 213 370 334 580 348 600 371 643 371 683 0 42 -8 53 -62 81 -18 10
-87 49 -153 88 -147 86 -843 488 -1095 633 -102 58 -233 134 -292 168 -58 34
-117 62 -130 62 -14 0 -34 -10 -45 -22z m263 -241 c98 -57 238 -138 309 -179
238 -137 648 -374 785 -453 219 -125 270 -157 270 -167 0 -5 -43 -84 -97 -176
-53 -92 -138 -239 -188 -327 -51 -88 -152 -263 -225 -390 -73 -126 -165 -286
-205 -355 -39 -69 -121 -210 -182 -315 -60 -104 -153 -266 -207 -360 -54 -93
-103 -175 -109 -182 -9 -10 -41 5 -142 63 -71 42 -148 86 -170 98 -22 13 -101
58 -175 101 -74 43 -223 129 -330 190 -107 62 -265 153 -350 202 -85 50 -204
118 -265 153 -60 35 -116 69 -124 76 -12 11 -4 29 48 119 34 58 70 120 80 138
10 18 74 129 143 247 141 244 424 734 566 980 52 91 144 251 205 355 61 105
122 211 136 238 14 26 30 47 36 47 6 0 92 -47 191 -103z"/>
<path d="M2333 2993 c-13 -5 -52 -68 -195 -318 -41 -71 -126 -218 -188 -325
-62 -107 -121 -208 -130 -225 -39 -68 -175 -304 -300 -520 -268 -462 -263
-453 -251 -483 8 -20 42 -45 114 -87 140 -81 443 -255 677 -390 107 -62 259
-149 336 -194 134 -77 173 -91 201 -73 7 4 61 91 119 192 59 102 166 289 239
415 73 127 172 298 220 380 324 559 485 845 485 863 0 12 -9 30 -20 40 -11 9
-184 111 -383 226 -199 115 -375 216 -392 226 -244 141 -445 256 -465 267 -26
13 -46 15 -67 6z m172 -216 c198 -114 436 -252 635 -367 107 -62 232 -133 277
-159 45 -25 82 -50 83 -56 0 -5 -16 -37 -36 -70 -20 -33 -96 -163 -169 -290
-197 -343 -312 -541 -418 -725 -53 -91 -149 -258 -214 -372 -65 -114 -124
-208 -132 -208 -7 0 -39 15 -70 34 -31 19 -72 43 -91 54 -19 10 -107 61 -195
112 -88 50 -220 126 -293 169 -73 42 -146 83 -161 93 -16 9 -89 51 -162 93
-74 43 -135 78 -137 80 -2 2 30 61 71 132 41 71 143 248 227 393 176 306 333
577 485 840 59 102 123 213 143 248 20 34 39 62 42 62 3 0 55 -29 115 -63z"/>
<path d="M2505 2402 c-66 -27 -153 -61 -193 -76 -79 -31 -100 -54 -88 -101 4
-14 18 -31 31 -37 27 -12 57 -3 305 94 125 48 150 65 150 100 0 24 -44 68 -67
68 -10 -1 -72 -22 -138 -48z"/>
<path d="M2811 2154 c-82 -31 -91 -39 -91 -79 0 -36 26 -65 57 -65 32 0 157
49 171 67 17 23 15 68 -4 87 -21 22 -58 19 -133 -10z"/>
<path d="M2470 2024 c-130 -49 -176 -66 -210 -79 -35 -13 -70 -48 -70 -70 0
-24 41 -65 65 -65 13 0 56 13 97 29 40 16 110 43 155 61 65 26 84 37 93 60 13
32 2 63 -30 80 -24 13 -24 13 -100 -16z"/>
<path d="M1322 3104 c-15 -10 -22 -25 -22 -49 0 -29 8 -40 58 -81 31 -25 58
-50 60 -54 1 -4 -26 -10 -62 -14 -88 -9 -242 -54 -360 -106 -252 -111 -486
-320 -628 -563 -48 -82 -49 -124 -4 -146 41 -19 68 -3 106 65 136 236 380 447
634 549 119 47 376 102 376 81 0 -7 -76 -112 -97 -134 -41 -43 -16 -112 40
-112 17 0 37 4 42 8 6 4 56 68 113 143 100 133 118 171 94 205 -8 11 -194 154
-257 197 -46 31 -62 33 -93 11z"/>
</g>
</svg>
