<?xml version="1.0" standalone="no"?>

<svg version="1.0" xmlns="http://www.w3.org/2000/svg"
 width="400.000000pt" height="400.000000pt" viewBox="0 0 400.000000 400.000000"
 preserveAspectRatio="xMidYMid meet">

<g transform="translate(0.000000,400.000000) scale(0.100000,-0.100000)"
fill="#000000" stroke="none">
<path d="M22 3988 c-9 -9 -12 -405 -12 -1719 0 -1539 2 -1709 16 -1723 14 -14
129 -16 1114 -16 l1099 0 15 22 c21 30 20 54 -4 78 -20 20 -33 20 -1065 20
-829 0 -1045 3 -1046 13 0 9 0 3190 1 3220 0 4 552 6 1228 5 l1227 -3 5 -890
c3 -489 9 -896 13 -902 12 -19 71 -16 90 5 16 17 17 97 17 948 0 710 -3 933
-12 942 -17 17 -2669 17 -2686 0z"/>
<path d="M421 3673 l-22 -18 1 -1384 c0 -1279 1 -1386 16 -1403 17 -17 51 -18
858 -16 l840 3 16 28 c13 24 13 30 0 55 l-16 27 -794 5 -795 5 -3 1288 -2
1287 26 10 c28 11 1681 14 1708 4 14 -6 16 -87 16 -821 l0 -814 25 -24 c29
-30 45 -31 79 -4 l26 20 0 858 c0 853 0 858 -21 885 l-20 26 -959 0 c-897 0
-959 -1 -979 -17z"/>
<path d="M1212 3233 c-8 -3 -92 -99 -188 -214 -183 -220 -194 -239 -154 -279
45 -45 58 -35 244 189 205 247 204 244 161 286 -24 25 -37 28 -63 18z"/>
<path d="M1668 3233 c-9 -2 -46 -40 -82 -85 -75 -90 -84 -126 -41 -154 40 -26
69 -11 140 77 77 96 83 129 28 158 -12 6 -23 10 -25 10 -2 -1 -11 -3 -20 -6z"/>
<path d="M1327 2830 c-53 -42 -342 -402 -345 -430 -4 -36 21 -60 62 -60 30 0
45 15 197 197 211 253 207 246 164 288 -29 30 -45 31 -78 5z"/>
<path d="M236 2494 c-14 -13 -16 -48 -16 -228 0 -230 3 -241 52 -234 43 6 49
37 46 251 -3 183 -5 200 -22 213 -25 18 -41 18 -60 -2z"/>
<path d="M3045 2159 c-113 -117 -333 -278 -482 -353 -77 -38 -251 -109 -295
-120 -51 -12 -58 -28 -58 -142 0 -111 28 -316 61 -449 81 -328 259 -633 496
-855 123 -114 295 -230 343 -230 53 0 217 111 354 241 250 236 409 520 498
889 27 111 31 147 35 326 l5 201 -48 18 c-240 88 -332 132 -484 233 -80 54
-257 199 -309 256 -36 38 -69 34 -116 -15z m112 -154 c176 -165 400 -305 625
-391 51 -20 96 -41 99 -46 4 -6 5 -22 4 -37 -2 -14 -6 -70 -10 -125 -16 -270
-118 -563 -278 -805 -115 -174 -414 -451 -485 -451 -24 0 -101 50 -194 127
-345 281 -560 738 -580 1227 l-3 70 95 36 c222 86 426 209 605 368 38 34 73
62 77 62 4 0 24 -16 45 -35z"/>
<path d="M3511 1333 c-15 -16 -107 -120 -205 -233 -98 -113 -183 -209 -187
-215 -6 -5 -66 47 -152 132 -78 77 -152 144 -165 148 -36 11 -72 -18 -72 -58
0 -30 19 -52 175 -208 154 -153 179 -174 208 -174 29 0 50 21 265 265 128 146
238 273 243 283 20 35 -14 87 -57 87 -15 0 -37 -12 -53 -27z"/>
</g>
</svg>
