<?xml version="1.0" standalone="no"?>

<svg version="1.0" xmlns="http://www.w3.org/2000/svg"
 width="400.000000pt" height="400.000000pt" viewBox="0 0 400.000000 400.000000"
 preserveAspectRatio="xMidYMid meet">

<g transform="translate(0.000000,400.000000) scale(0.100000,-0.100000)"
fill="#000000" stroke="none">
<path d="M1875 3606 c-118 -29 -230 -116 -288 -224 -56 -104 -57 -111 -57
-1035 l0 -847 -49 -63 c-92 -118 -130 -222 -138 -377 -6 -117 14 -214 62 -310
95 -187 265 -317 459 -351 321 -55 618 116 731 421 40 107 46 263 16 374 -27
97 -60 164 -122 243 l-49 63 0 847 c0 917 -1 926 -54 1031 -90 178 -312 277
-511 228z m243 -145 c66 -34 128 -96 159 -160 l28 -56 5 -908 c5 -905 5 -908
26 -925 31 -25 89 -102 112 -147 124 -249 24 -557 -223 -687 -89 -46 -171 -62
-286 -56 -81 5 -100 10 -174 47 -58 29 -99 58 -140 100 -103 107 -144 197
-152 337 -5 77 -2 104 17 165 25 86 65 155 126 221 l44 47 0 880 c0 856 1 881
20 945 28 88 99 166 185 202 77 32 186 30 253 -5z"/>
<path d="M1905 3341 c-50 -22 -91 -69 -105 -119 -6 -24 -10 -350 -10 -941 l0
-904 -60 -54 c-41 -37 -69 -75 -92 -121 -31 -62 -33 -74 -33 -167 0 -91 3
-106 31 -165 139 -294 545 -299 696 -9 31 61 33 70 33 169 0 95 -3 111 -29
168 -21 45 -47 80 -93 121 l-63 58 0 914 c0 867 -1 916 -19 954 -46 99 -158
141 -256 96z m125 -131 c20 -20 20 -33 20 -960 l0 -941 23 -20 c12 -11 42 -35
67 -53 97 -69 130 -207 76 -313 -52 -104 -178 -169 -276 -143 -66 18 -114 45
-145 82 -114 135 -75 324 85 408 14 7 28 18 32 24 4 6 8 435 8 953 l0 942 22
21 c28 25 62 26 88 0z"/>
<path d="M3300 2980 c-17 -17 -20 -33 -20 -114 0 -107 10 -126 64 -126 54 0
66 23 66 126 0 95 -3 105 -37 123 -31 16 -50 14 -73 -9z"/>
<path d="M586 2937 c-12 -9 -20 -32 -25 -71 l-6 -58 -38 36 c-47 45 -79 54
-112 32 -18 -12 -25 -25 -25 -49 0 -28 14 -46 90 -122 l90 -90 0 -118 0 -118
-67 37 c-145 79 -134 67 -168 200 -16 66 -37 126 -47 136 -24 24 -63 23 -88
-2 -24 -24 -25 -48 -5 -112 8 -27 12 -48 11 -48 -2 0 -24 11 -47 25 -53 30
-78 31 -107 5 -42 -39 -23 -88 48 -125 38 -20 34 -25 -33 -45 l-52 -16 -3 -52
c-4 -74 9 -77 165 -36 l124 33 37 -21 c110 -62 162 -93 162 -98 0 -3 -9 -10
-19 -15 -11 -6 -54 -29 -95 -52 -41 -24 -84 -43 -94 -43 -11 0 -57 11 -103 24
-122 34 -131 36 -156 30 -20 -6 -23 -12 -23 -60 l0 -54 60 -17 c33 -9 60 -19
60 -22 0 -3 -20 -18 -45 -33 -52 -32 -65 -65 -41 -103 21 -31 61 -33 116 -5
44 22 45 20 29 -45 -15 -59 -6 -90 31 -105 25 -10 34 -10 54 3 24 16 33 40 75
196 11 40 21 74 23 75 37 23 187 106 192 106 3 0 6 -52 6 -115 l0 -115 -90
-91 c-78 -78 -90 -94 -90 -124 0 -24 7 -39 22 -49 35 -25 55 -19 107 29 l49
45 4 -61 c3 -37 10 -64 19 -70 29 -19 60 -21 84 -5 22 14 25 24 25 71 0 30 4
55 8 55 5 0 19 -12 33 -26 51 -55 106 -65 136 -25 28 36 15 62 -82 160 l-95
97 0 112 c0 62 4 112 8 112 4 0 50 -24 102 -54 l95 -54 18 -64 c50 -175 58
-198 77 -208 27 -14 68 -2 86 26 14 21 14 29 -1 80 -9 31 -14 58 -11 61 3 3
20 -4 39 -16 64 -40 127 -23 127 34 0 38 -23 66 -71 85 -29 12 -39 30 -18 30
6 0 35 7 63 15 61 18 82 47 66 90 -16 43 -49 50 -127 27 -37 -11 -94 -26 -125
-33 l-56 -12 -96 54 c-53 30 -95 58 -93 63 2 6 46 34 98 63 l94 52 125 -33
c111 -31 127 -33 151 -21 33 17 42 50 24 84 -10 20 -29 31 -77 45 -55 16 -61
20 -44 30 91 55 109 87 74 131 -25 32 -54 32 -112 -1 -25 -14 -46 -23 -46 -19
0 4 7 31 16 61 14 51 14 57 -1 80 -20 31 -37 38 -70 30 -30 -8 -47 -40 -70
-131 -35 -143 -31 -137 -125 -193 -131 -78 -120 -82 -120 49 l0 113 95 97
c102 103 114 130 75 169 -31 31 -65 25 -114 -20 -24 -22 -46 -40 -50 -40 -3 0
-6 24 -6 53 0 40 -5 58 -18 70 -22 20 -61 22 -86 4z"/>
<path d="M2717 2642 c-20 -22 -22 -62 -4 -84 21 -27 137 -88 166 -88 51 0 82
68 46 103 -26 27 -143 87 -168 87 -13 0 -31 -8 -40 -18z"/>
<path d="M3830 2620 c-70 -43 -90 -63 -90 -92 0 -26 36 -58 66 -58 32 0 170
74 178 96 18 47 -13 94 -61 94 -16 -1 -57 -18 -93 -40z"/>
<path d="M3235 2568 c-78 -29 -153 -98 -186 -173 -34 -73 -33 -201 1 -270 31
-63 91 -123 155 -155 42 -21 64 -25 140 -25 79 0 96 4 140 27 96 53 143 112
170 213 36 139 -26 284 -153 357 -51 29 -66 33 -147 35 -49 1 -103 -3 -120 -9z
m188 -132 c78 -32 131 -140 107 -219 -17 -58 -44 -93 -96 -123 -38 -23 -53
-26 -104 -22 -47 3 -68 10 -97 34 -74 59 -102 156 -67 230 18 37 73 94 102
106 30 12 121 9 155 -6z"/>
<path d="M2800 2023 c-88 -48 -100 -60 -100 -99 0 -35 28 -64 63 -64 19 0 125
59 160 88 36 31 7 113 -40 112 -10 0 -47 -17 -83 -37z"/>
<path d="M3778 2049 c-30 -17 -41 -47 -29 -77 13 -30 146 -112 181 -112 41 0
71 51 54 94 -7 17 -153 106 -175 106 -8 0 -22 -5 -31 -11z"/>
<path d="M3300 1770 c-17 -17 -20 -33 -20 -114 0 -108 10 -126 65 -126 51 0
65 27 65 126 0 67 -4 86 -21 108 -25 31 -61 34 -89 6z"/>
</g>
</svg>
