<?xml version="1.0" standalone="no"?>

<svg version="1.0" xmlns="http://www.w3.org/2000/svg"
 width="400.000000pt" height="400.000000pt" viewBox="0 0 400.000000 400.000000"
 preserveAspectRatio="xMidYMid meet">

<g transform="translate(0.000000,400.000000) scale(0.100000,-0.100000)"
fill="#000000" stroke="none">
<path d="M660 3420 c-15 -15 -20 -33 -20 -76 0 -66 11 -90 46 -98 32 -9 74 16
74 44 0 20 10 20 810 20 l810 0 0 -950 c0 -937 0 -950 20 -970 25 -25 72 -26
93 -2 16 17 17 102 17 1020 l0 1001 -22 15 c-20 14 -123 16 -915 16 -880 0
-893 0 -913 -20z"/>
<path d="M325 3086 c-14 -20 -15 -120 -13 -855 3 -811 4 -833 22 -847 27 -19
70 -18 89 4 15 17 17 91 19 808 l3 789 808 3 807 2 0 -790 c0 -777 0 -790 20
-810 11 -11 31 -20 45 -20 14 0 34 9 45 20 20 20 20 33 20 853 0 795 -1 835
-18 850 -17 16 -96 17 -925 17 l-907 0 -15 -24z"/>
<path d="M595 2835 l-25 -24 0 -701 c0 -687 0 -700 20 -720 24 -24 57 -26 88
-4 l22 15 0 665 0 664 550 0 550 0 0 -660 c0 -647 0 -660 20 -680 11 -11 31
-20 45 -20 14 0 34 9 45 20 20 20 20 33 20 715 0 492 -3 701 -11 719 -6 13
-21 27 -33 30 -11 3 -301 6 -644 6 l-623 0 -24 -25z"/>
<path d="M988 2463 c-84 -81 -102 -111 -88 -148 11 -28 50 -48 77 -38 10 3 53
40 96 82 64 63 77 81 77 108 0 40 -23 63 -62 63 -23 0 -45 -14 -100 -67z"/>
<path d="M1396 2480 c-51 -54 -60 -94 -28 -123 33 -30 67 -21 122 33 55 56 65
94 32 123 -35 32 -75 22 -126 -33z"/>
<path d="M1072 2157 c-113 -115 -124 -135 -102 -177 14 -25 55 -33 88 -16 15
8 71 59 125 114 86 89 97 104 97 136 0 40 -20 56 -67 56 -24 0 -50 -21 -141
-113z"/>
<path d="M2870 1991 c-19 -11 -43 -28 -53 -39 -44 -48 -46 -76 -47 -514 0
-405 1 -419 20 -438 26 -26 60 -25 88 0 22 21 22 22 22 428 0 353 2 411 16
430 15 22 18 22 274 22 l259 0 41 -53 c22 -30 40 -57 40 -60 0 -4 -103 -7
-228 -7 -216 0 -229 -1 -250 -20 -21 -20 -22 -27 -22 -240 0 -207 1 -221 20
-240 19 -19 33 -20 420 -20 l400 0 0 -65 0 -65 -78 0 c-89 0 -112 -14 -112
-67 0 -49 25 -63 113 -63 l77 0 0 -109 c0 -107 -1 -110 -27 -131 -24 -18 -37
-20 -131 -18 l-104 3 -21 54 c-24 66 -97 143 -165 174 -66 31 -197 31 -263 1
-138 -64 -215 -206 -188 -351 21 -110 75 -185 171 -233 53 -26 72 -30 142 -30
69 0 90 4 141 29 33 16 74 43 92 61 28 28 70 101 86 152 5 14 24 16 131 17 69
1 133 4 143 8 38 14 83 56 102 97 20 40 21 60 21 319 0 161 -4 287 -10 302 -6
15 -107 166 -226 336 -179 256 -223 313 -255 329 -35 19 -59 20 -321 20 -256
-1 -286 -3 -318 -19z m843 -485 c48 -68 87 -126 87 -130 0 -3 -144 -6 -320 -6
l-320 0 0 130 0 130 233 0 233 0 87 -124z m-318 -690 c115 -88 113 -241 -5
-320 -106 -72 -263 -8 -289 116 -11 50 5 126 33 163 60 78 186 98 261 41z"/>
<path d="M17 1229 c-16 -9 -17 -35 -17 -307 0 -219 3 -301 12 -310 8 -8 58
-12 160 -12 112 0 148 -3 148 -12 0 -29 50 -118 89 -157 63 -64 129 -91 226
-91 67 0 90 5 140 28 224 107 248 421 42 557 -176 116 -417 37 -483 -157 l-16
-48 -99 0 -99 0 0 195 0 195 1240 0 c1227 0 1240 0 1260 20 27 27 26 75 -2 94
-20 14 -160 16 -1303 16 -851 -1 -1286 -4 -1298 -11z m691 -394 c49 -21 81
-52 103 -100 78 -169 -123 -345 -273 -239 -80 56 -111 128 -88 209 31 112 153
173 258 130z"/>
<path d="M1106 698 c-21 -30 -20 -65 2 -84 16 -13 116 -15 857 -15 659 1 842
4 851 13 24 25 25 54 3 81 l-20 27 -839 0 -839 0 -15 -22z"/>
</g>
</svg>
