<?xml version="1.0" standalone="no"?>

<svg version="1.0" xmlns="http://www.w3.org/2000/svg"
 width="400.000000pt" height="400.000000pt" viewBox="0 0 400.000000 400.000000"
 preserveAspectRatio="xMidYMid meet">

<g transform="translate(0.000000,400.000000) scale(0.100000,-0.100000)"
fill="#000000" stroke="none">
<path d="M243 3742 c-56 -8 -53 82 -53 -1538 l0 -1492 -74 -4 c-118 -5 -116
-3 -116 -228 0 -145 3 -190 14 -206 14 -19 47 -19 1977 -22 1748 -2 1965 0
1986 13 23 15 23 17 23 215 l0 200 -24 15 c-18 12 -44 16 -93 14 l-68 -3 -5
1508 c-4 1325 -7 1508 -20 1516 -8 5 -35 10 -60 10 -880 3 -3471 4 -3487 2z
m1697 -1582 l0 -1450 -810 0 -810 0 0 1450 0 1450 810 0 810 0 0 -1450z m1750
0 l0 -1450 -810 0 -810 0 0 1450 0 1450 810 0 810 0 0 -1450z m188 -1682 l3
-98 -1876 0 -1875 0 0 93 c0 52 3 97 7 100 3 4 846 6 1872 5 l1866 -3 3 -97z"/>
<path d="M537 3402 c-16 -17 -17 -118 -17 -1240 0 -1209 0 -1222 20 -1242 20
-20 33 -20 564 -20 l545 0 15 22 c14 20 16 154 16 1238 0 1084 -2 1218 -16
1238 l-15 22 -548 0 c-518 0 -549 -1 -564 -18z m1013 -1242 l0 -1130 -450 0
-450 0 0 1130 0 1130 450 0 450 0 0 -1130z"/>
<path d="M857 2821 c-68 -66 -80 -83 -80 -111 0 -39 23 -60 66 -60 23 0 46 17
108 77 71 69 79 80 79 114 0 42 -19 59 -66 59 -20 0 -47 -20 -107 -79z"/>
<path d="M1280 2854 c-41 -38 -50 -53 -50 -80 0 -23 7 -38 22 -48 39 -27 65
-19 118 36 54 56 64 92 32 121 -33 30 -69 21 -122 -29z"/>
<path d="M952 2527 c-121 -123 -129 -141 -87 -182 42 -43 48 -40 193 105 87
87 102 106 102 134 0 41 -15 56 -60 56 -33 0 -46 -11 -148 -113z"/>
<path d="M2350 3400 c-20 -20 -20 -33 -20 -1244 l0 -1225 22 -15 c20 -14 90
-16 565 -16 l542 0 15 22 c14 20 16 154 16 1238 0 1084 -2 1218 -16 1238 l-15
22 -545 0 c-531 0 -544 0 -564 -20z m1010 -1240 l0 -1130 -450 0 -450 0 0
1130 0 1130 450 0 450 0 0 -1130z"/>
<path d="M2160 2221 c-15 -28 -13 -304 2 -319 19 -19 66 -15 78 7 5 11 10 82
10 160 0 114 -3 142 -16 155 -21 22 -61 20 -74 -3z"/>
</g>
</svg>
