<?xml version="1.0" standalone="no"?>

<svg version="1.0" xmlns="http://www.w3.org/2000/svg"
 width="400.000000pt" height="400.000000pt" viewBox="0 0 400.000000 400.000000"
 preserveAspectRatio="xMidYMid meet">

<g transform="translate(0.000000,400.000000) scale(0.100000,-0.100000)"
fill="#000000" stroke="none">
<path d="M1312 3988 c-16 -16 -17 -640 -2 -669 14 -25 71 -26 93 -1 15 16 17
51 17 290 l0 272 1230 0 1230 0 -2 -1615 -3 -1616 -523 1 -523 0 -24 -24 c-30
-30 -32 -59 -5 -86 20 -20 33 -20 598 -20 436 0 581 3 590 12 9 9 12 408 12
1734 0 1561 -1 1722 -16 1728 -9 3 -611 6 -1338 6 -1015 0 -1325 -3 -1334 -12z"/>
<path d="M1696 3658 c-13 -19 -16 -62 -16 -266 l0 -243 26 -25 c19 -20 31 -24
52 -19 50 12 52 23 52 247 l0 208 873 -2 872 -3 3 -1292 2 -1292 -410 -3
c-451 -3 -430 0 -430 -65 0 -64 -5 -63 486 -63 l443 0 20 26 21 27 0 1371 c0
1225 -2 1374 -16 1394 l-15 22 -974 0 -974 0 -15 -22z"/>
<path d="M2408 3133 c-169 -196 -278 -335 -278 -354 0 -46 74 -77 111 -46 9 6
43 46 76 87 33 41 71 86 84 100 71 76 177 218 180 240 5 42 -17 70 -55 70 -30
0 -43 -10 -118 -97z"/>
<path d="M2871 3144 c-39 -47 -71 -92 -71 -100 0 -44 50 -81 89 -66 29 10 151
161 151 186 0 38 -28 66 -65 66 -30 0 -41 -9 -104 -86z"/>
<path d="M1130 3090 c-107 -19 -194 -65 -262 -138 -89 -94 -132 -217 -150
-428 -10 -110 -9 -138 3 -175 12 -36 12 -51 3 -84 -31 -102 5 -199 90 -239 28
-13 35 -23 40 -58 8 -51 46 -129 88 -181 28 -36 30 -43 24 -90 -21 -173 -93
-236 -419 -362 -78 -30 -164 -65 -192 -78 -54 -24 -144 -93 -185 -141 -99
-117 -155 -319 -167 -603 -6 -153 -3 -166 44 -184 23 -8 23 -12 23 -152 0
-127 2 -146 18 -160 24 -22 65 -22 85 1 13 14 17 46 19 162 l3 145 127 3 128
3 0 -144 c0 -137 1 -144 23 -165 28 -27 68 -28 90 -4 15 17 17 73 17 603 l0
585 53 22 c29 12 58 22 65 22 9 0 12 -51 12 -213 0 -176 3 -216 16 -235 l15
-22 548 0 c456 0 550 2 567 14 18 13 19 30 22 239 l3 225 57 -23 57 -23 5
-585 c5 -557 6 -586 24 -606 23 -26 57 -27 85 -3 19 16 21 29 23 162 l3 145
125 0 125 0 5 -141 c4 -121 8 -145 24 -163 23 -25 53 -27 84 -5 21 14 22 22
22 159 l0 144 28 13 c27 13 27 13 30 133 6 220 -31 427 -101 560 -42 80 -145
181 -227 222 -36 18 -130 58 -210 89 -273 105 -372 175 -404 285 -26 86 -21
120 24 185 73 104 83 145 88 355 4 180 3 188 -17 208 -26 26 -72 27 -94 4 -12
-15 -16 -53 -19 -198 -4 -169 -6 -184 -30 -237 -94 -205 -360 -255 -516 -97
-57 56 -88 120 -97 194 -8 68 -24 91 -69 101 -62 13 -83 55 -50 102 15 22 18
22 267 23 313 0 311 0 411 117 93 109 131 135 204 140 67 4 105 -8 127 -42 15
-23 15 -27 0 -56 -9 -17 -25 -40 -36 -51 -26 -26 -24 -61 5 -88 63 -59 166 46
166 168 0 97 -58 166 -160 191 -30 7 -148 10 -345 8 l-300 -3 -75 -36 c-57
-28 -96 -57 -163 -123 -48 -47 -94 -86 -102 -86 -18 0 -20 53 -5 167 21 151
75 275 144 328 33 25 119 65 141 65 10 0 7 -17 -11 -67 -41 -117 -27 -173 44
-173 35 0 62 30 62 70 0 31 33 104 67 148 24 32 29 34 70 28 106 -14 230 -111
253 -196 11 -40 24 -50 70 -50 32 0 60 31 60 65 0 40 -49 123 -103 178 -58 58
-148 108 -227 126 -52 12 -224 12 -290 1z m340 -575 c0 -12 -74 -101 -94 -112
-24 -14 -316 -18 -316 -5 0 20 95 92 145 110 29 10 265 17 265 7z m-315 -876
c79 -28 198 -28 277 -1 59 21 68 20 68 -9 0 -37 43 -131 82 -180 46 -58 48
-54 -47 -99 -136 -66 -283 -77 -415 -30 -62 22 -150 69 -150 80 0 3 14 20 30
39 41 44 65 94 80 164 6 31 12 57 14 57 1 0 29 -9 61 -21z m-271 -343 c45 -34
161 -90 231 -112 84 -26 276 -26 360 0 69 21 162 66 222 107 23 16 44 29 47
29 3 0 6 -92 6 -205 l0 -205 -455 0 -455 0 0 205 c0 113 3 205 7 205 3 0 20
-11 37 -24z m-434 -491 l0 -355 -161 0 -161 0 6 98 c7 113 30 255 52 321 22
64 77 161 111 193 23 22 139 98 150 98 2 0 3 -160 3 -355z m1818 276 c106 -83
172 -275 185 -539 l5 -92 -162 2 -161 3 -3 340 c-1 187 0 346 3 353 6 15 69
-17 133 -67z"/>
<path d="M2603 2822 c-73 -73 -329 -398 -334 -422 -9 -40 21 -72 64 -68 28 3
54 29 204 209 102 122 174 216 177 233 10 55 -71 90 -111 48z"/>
<path d="M734 436 c-17 -13 -19 -30 -22 -193 -2 -106 1 -189 7 -205 13 -35 55
-47 90 -27 26 15 26 16 31 164 l5 150 450 0 450 0 3 -145 c2 -133 4 -146 23
-162 30 -26 64 -22 88 8 19 25 21 40 21 205 0 166 -1 180 -20 199 -20 20 -33
20 -563 20 -453 0 -546 -2 -563 -14z"/>
</g>
</svg>
